<?xml version="1.0" standalone="no"?>
<!DOCTYPE svg PUBLIC "-//W3C//DTD SVG 20010904//EN"
 "http://www.w3.org/TR/2001/REC-SVG-20010904/DTD/svg10.dtd">
<svg version="1.0" xmlns="http://www.w3.org/2000/svg"
 width="535.000000pt" height="535.000000pt" viewBox="0 0 535.000000 535.000000"
 preserveAspectRatio="xMidYMid meet">
<metadata>
Created by potrace 1.14, written by Peter Selinger 2001-2017
</metadata>
<g transform="translate(0.000000,535.000000) scale(0.100000,-0.100000)"
fill="#000000" stroke="none">
<path d="M2930 4813 c109 -109 200 -208 204 -221 6 -16 -17 -65 -94 -207 -56
-102 -104 -185 -106 -185 -2 0 -8 19 -15 43 -16 61 -66 165 -105 217 -57 76
-116 140 -129 140 -7 0 -24 -17 -39 -38 -14 -21 -40 -52 -56 -67 l-30 -29 34
-35 c124 -131 186 -294 186 -491 0 -88 -6 -126 -35 -235 -44 -163 -112 -439
-119 -485 -13 -84 -26 -117 -26 -67 0 28 -34 207 -51 272 -6 22 -13 51 -16 65
-13 80 -114 415 -164 546 -40 108 -100 246 -109 254 -3 3 -20 36 -39 74 -19
37 -51 93 -72 124 l-38 55 25 33 c14 18 29 34 32 36 4 2 34 34 67 73 33 38
116 125 183 193 l124 123 -129 -7 c-70 -4 -138 -7 -151 -7 -13 -1 -39 -19 -65
-46 -81 -87 -177 -202 -177 -211 0 -27 -31 -1 -84 70 -33 44 -64 80 -69 80 -5
0 -36 -11 -70 -24 -34 -14 -75 -30 -90 -35 l-28 -11 29 -32 c97 -108 136 -157
150 -185 15 -32 15 -33 -36 -118 -29 -48 -52 -88 -52 -91 0 -2 -13 -31 -29
-64 -17 -34 -35 -77 -41 -96 -6 -18 -15 -34 -19 -34 -4 0 -13 17 -20 38 -45
128 -216 431 -243 432 -6 0 -142 -83 -156 -95 -2 -1 24 -40 57 -86 79 -110
156 -266 175 -356 9 -39 21 -84 27 -100 17 -44 50 -183 54 -233 2 -25 7 -76
10 -115 3 -38 8 -81 10 -95 2 -14 6 -47 10 -75 6 -59 11 -84 20 -107 10 -26 0
-23 -67 25 -33 23 -70 49 -82 57 -13 8 -66 48 -119 89 -90 68 -97 76 -98 110
-4 135 2 366 10 402 6 24 11 47 11 50 0 3 -26 12 -57 18 -32 7 -76 19 -99 26
-29 9 -41 10 -42 1 0 -6 -3 -40 -7 -76 -4 -36 -8 -108 -10 -160 -2 -52 -4 -96
-4 -97 -3 -9 -157 153 -199 210 l-51 67 -43 -46 c-24 -25 -52 -61 -62 -79 -16
-29 -17 -35 -5 -48 8 -8 36 -41 64 -73 61 -73 322 -334 390 -391 28 -23 64
-53 80 -67 66 -57 268 -199 374 -264 l113 -69 62 -119 c35 -65 101 -176 149
-246 47 -70 89 -138 93 -150 4 -13 10 -25 14 -28 13 -10 108 -246 114 -284 l5
-39 -42 40 c-92 87 -95 90 -264 186 -55 30 -273 236 -273 256 0 5 -7 16 -15
24 -28 28 -123 222 -145 294 -24 81 -11 75 -136 58 -76 -11 -77 -12 -60 -81
34 -139 98 -304 119 -304 6 0 8 -2 5 -5 -5 -5 -90 37 -238 117 -30 17 -68 42
-83 56 -50 47 -97 169 -122 317 -6 31 -14 202 -15 304 0 8 -2 12 -6 9 -3 -3
-42 2 -87 12 -45 10 -84 16 -86 14 -19 -18 -23 -271 -6 -359 7 -38 12 -71 11
-72 -1 -2 -71 64 -155 146 -84 82 -154 143 -156 137 -2 -6 -15 -54 -29 -106
l-26 -94 38 -39 c36 -38 137 -136 192 -187 15 -14 39 -34 54 -44 14 -10 26
-22 26 -26 0 -21 -237 -40 -335 -28 -18 3 -19 -4 -23 -94 -3 -96 -2 -98 20
-99 51 -2 244 2 258 6 8 2 42 7 75 10 66 6 175 33 189 46 18 16 33 10 153 -62
135 -82 315 -173 429 -217 133 -51 227 -93 261 -116 l32 -22 -137 0 c-75 1
-153 -2 -172 -5 -57 -10 -124 -30 -137 -41 -7 -6 -32 -8 -55 -5 -184 24 -311
81 -418 188 -33 34 -60 65 -60 70 0 17 -21 9 -100 -42 -93 -60 -96 -45 25
-164 67 -66 101 -93 184 -143 l34 -20 -39 -12 c-68 -20 -310 -23 -379 -4 -112
31 -103 33 -94 -26 12 -77 38 -160 52 -166 17 -6 132 -13 240 -13 l87 -1 -30
-52 c-60 -103 -112 -232 -124 -307 -4 -28 3 -46 46 -110 73 -110 118 -171 128
-171 5 0 8 30 6 68 -13 261 116 502 353 657 69 45 132 70 216 86 28 5 64 12
80 15 52 10 244 11 303 2 217 -34 390 -157 482 -342 77 -157 78 -168 78 -711
0 -264 1 -486 1 -493 1 -10 24 -12 94 -10 l92 3 -3 460 -2 460 20 -25 c60 -73
158 -316 211 -522 24 -96 22 -86 52 -248 l23 -125 102 -3 c56 -1 103 1 103 5
1 4 3 222 4 483 1 261 5 488 8 503 22 106 75 236 130 317 68 100 219 209 311
226 16 3 33 7 37 9 32 20 308 26 409 8 263 -45 440 -171 544 -386 51 -107 79
-224 80 -339 1 -64 4 -91 10 -80 5 9 13 19 16 22 4 3 37 49 74 103 61 90 72
114 66 142 -1 6 -4 21 -6 35 -15 82 -70 210 -118 273 -20 26 -36 49 -36 51 0
2 61 3 135 1 194 -5 218 5 231 94 4 25 13 60 20 78 8 18 14 35 14 38 0 6 -29
1 -79 -14 -41 -13 -157 -25 -225 -24 -89 2 -226 28 -226 44 0 4 31 26 69 48
120 70 232 167 247 213 3 11 4 21 2 22 -1 1 -33 23 -70 49 -66 47 -88 56 -88
37 0 -18 -135 -147 -187 -178 -132 -79 -274 -97 -408 -52 -61 20 -90 23 -232
24 -90 1 -157 3 -150 5 6 2 50 21 95 42 46 22 85 39 87 39 2 0 93 43 202 96
214 104 372 192 415 232 29 27 35 27 133 -8 33 -11 71 -23 85 -25 14 -3 36 -7
50 -10 92 -21 267 -27 318 -11 21 7 22 13 22 96 l0 88 -112 2 c-62 1 -125 3
-140 5 -65 8 -108 17 -113 25 -3 4 11 20 30 35 20 14 47 37 61 50 14 13 43 38
66 57 23 18 68 59 101 90 52 50 59 61 53 85 -3 15 -9 39 -12 52 -3 14 -7 28
-9 31 -2 4 -7 22 -10 41 -13 77 -8 79 -164 -80 -81 -83 -152 -151 -158 -151
-7 0 -7 19 0 58 14 82 14 349 0 363 -9 9 -20 8 -45 0 -18 -7 -58 -14 -88 -17
-30 -4 -55 -7 -56 -8 0 0 2 -30 6 -66 15 -145 1 -291 -37 -405 -24 -69 -36
-88 -88 -140 -33 -33 -79 -70 -100 -82 -48 -27 -223 -113 -230 -113 -3 0 12
35 34 78 70 140 118 314 86 318 -5 0 -44 5 -85 10 -41 5 -79 9 -84 9 -5 0 -19
-36 -31 -80 -36 -130 -92 -256 -135 -305 -12 -14 -27 -32 -34 -40 -11 -15 -96
-93 -151 -140 -17 -14 -64 -47 -105 -74 -180 -118 -209 -139 -241 -171 -19
-19 -37 -35 -41 -35 -28 -1 138 378 219 501 72 108 131 207 155 260 17 39 35
57 107 105 47 32 88 61 91 64 3 3 18 14 35 24 16 11 34 23 40 28 5 4 73 56
150 114 172 131 310 250 436 374 106 105 209 227 209 247 0 16 -90 153 -101
153 -4 0 -22 -19 -40 -42 -41 -53 -75 -91 -161 -182 l-67 -71 -2 100 c-1 55
-3 109 -4 120 -2 11 -5 40 -8 66 -10 77 -12 79 -63 63 -24 -7 -63 -16 -86 -19
-56 -9 -59 -11 -48 -39 25 -67 32 -344 11 -432 -12 -49 -18 -56 -129 -145
-117 -95 -223 -171 -229 -165 -2 2 1 34 7 72 6 38 13 90 15 115 2 25 6 68 9
95 3 27 8 74 11 104 14 160 41 258 118 435 68 155 144 295 184 337 15 15 25
29 22 31 -26 23 -149 107 -155 107 -28 -1 -176 -269 -220 -399 -18 -53 -37
-97 -42 -99 -6 -2 -18 21 -28 50 -15 46 -75 176 -108 233 -6 11 -26 46 -44 78
l-34 57 34 43 c18 23 61 75 96 115 l63 72 -25 10 c-14 5 -57 23 -95 39 l-70
30 -43 -52 c-24 -29 -52 -65 -62 -81 l-19 -30 -31 35 c-17 19 -68 76 -114 126
l-82 91 -68 7 c-37 5 -87 9 -112 10 -25 1 -64 6 -86 9 -40 7 -38 5 156 -191z
m358 -451 c30 -41 97 -181 131 -274 53 -144 64 -202 66 -363 3 -167 -19 -308
-70 -461 -27 -78 -29 -81 -88 -120 -78 -51 -81 -52 -73 -23 4 13 9 35 12 49 3
14 10 41 16 60 18 52 17 316 -1 358 -8 18 -19 31 -26 28 -6 -2 -48 -14 -92
-26 l-80 -21 8 -42 c13 -66 10 -177 -6 -268 -21 -121 -60 -215 -135 -328 -39
-58 -150 -181 -164 -181 -7 0 0 193 9 260 13 102 35 259 40 285 15 77 65 294
74 318 6 15 9 27 7 27 -8 0 86 267 127 360 47 108 123 258 142 280 7 8 14 20
16 25 10 25 52 85 59 85 5 0 17 -12 28 -28z m-1209 -150 c55 -110 157 -343
166 -380 3 -9 18 -57 35 -107 31 -93 86 -304 94 -365 3 -19 10 -69 16 -110 6
-41 13 -93 16 -115 2 -22 9 -76 15 -120 5 -44 12 -116 14 -159 l4 -79 -37 34
c-20 19 -39 36 -42 39 -21 22 -185 154 -227 183 -70 47 -80 58 -104 114 -41
93 -35 202 18 305 7 15 14 31 15 35 1 5 6 13 12 20 6 6 22 28 36 47 14 19 35
40 48 47 12 7 18 15 12 19 -5 3 -34 38 -63 78 l-54 72 -48 -49 c-82 -85 -128
-166 -151 -271 -15 -64 -26 -82 -37 -62 -26 43 -29 394 -5 522 10 52 20 105
23 118 10 54 90 260 106 272 3 3 14 21 24 39 l18 35 18 -23 c10 -12 45 -75 78
-139z m1036 -1502 c-54 -105 -129 -293 -185 -465 -40 -121 -60 -167 -60 -136
0 21 -50 139 -86 203 -19 33 -34 68 -34 77 0 44 143 212 248 291 19 14 40 31
47 38 8 6 16 12 19 12 3 0 14 7 23 14 43 36 68 54 70 52 1 -1 -17 -40 -42 -86z
m-904 20 c61 -46 177 -161 221 -218 24 -32 45 -59 48 -62 3 -3 22 -30 41 -60
123 -189 227 -465 255 -675 3 -22 8 -47 11 -55 10 -29 13 -390 3 -390 -6 0
-10 4 -10 9 0 38 -153 317 -285 521 -60 92 -75 135 -89 247 -2 15 -12 54 -21
87 -9 32 -18 64 -19 70 -8 40 -30 107 -47 143 -10 24 -19 47 -19 51 0 16 -98
237 -141 317 l-42 79 30 -19 c17 -11 46 -31 64 -45z"/>
</g>
</svg>
