<?xml version="1.0" standalone="no"?>
<!DOCTYPE svg PUBLIC "-//W3C//DTD SVG 20010904//EN"
 "http://www.w3.org/TR/2001/REC-SVG-20010904/DTD/svg10.dtd">
<svg version="1.0" xmlns="http://www.w3.org/2000/svg"
 width="833.000000pt" height="833.000000pt" viewBox="0 0 833.000000 833.000000"
 preserveAspectRatio="xMidYMid meet">
<metadata>
Created by potrace 1.14, written by Peter Selinger 2001-2017
</metadata>
<g transform="translate(0.000000,833.000000) scale(0.100000,-0.100000)"
fill="#000000" stroke="none">
<path d="M3628 8254 c-2 -1 -37 -5 -78 -9 -97 -8 -187 -19 -245 -29 -16 -3
-46 -8 -65 -11 -79 -13 -93 -16 -163 -31 -39 -8 -79 -17 -87 -19 -8 -2 -51
-13 -95 -24 -44 -12 -87 -24 -95 -26 -8 -2 -15 -4 -15 -5 0 -1 -7 -3 -15 -5
-161 -32 -628 -230 -838 -354 -29 -17 -57 -31 -62 -31 -6 0 -10 -4 -10 -10 0
-5 -5 -10 -11 -10 -22 0 -435 -282 -469 -320 -3 -3 -30 -25 -60 -50 -124 -101
-384 -355 -470 -459 -25 -30 -52 -61 -61 -70 -15 -15 -63 -76 -119 -151 -14
-18 -29 -38 -35 -44 -5 -6 -28 -38 -50 -71 -22 -33 -42 -62 -45 -65 -12 -11
-110 -170 -169 -273 -133 -235 -250 -501 -330 -750 l-41 -129 0 -1132 0 -1132
39 -124 c34 -110 96 -277 136 -365 83 -185 213 -439 248 -483 12 -16 85 45
213 176 l92 94 -38 76 c-41 86 -150 346 -155 371 -2 9 -4 17 -5 19 -2 1 -3 5
-5 10 -1 4 -5 16 -9 27 -16 43 -26 74 -56 175 -17 58 -34 116 -36 130 -3 14
-8 34 -11 45 -4 11 -8 27 -9 35 -4 26 -15 74 -20 92 -3 9 -6 25 -8 35 -2 10
-7 36 -11 58 -9 49 -13 70 -19 115 -3 19 -8 53 -12 75 -4 22 -8 54 -9 70 -1
17 -5 53 -9 81 -18 133 -24 461 -12 659 11 194 14 220 33 340 3 22 7 49 9 60
2 16 16 93 40 220 2 11 13 58 25 105 12 47 22 92 24 100 2 8 4 15 5 15 1 0 3
7 5 15 46 211 227 649 374 904 28 49 51 91 51 93 0 6 206 314 230 343 11 14
42 53 69 88 312 398 716 751 1151 1005 112 65 322 173 400 206 30 13 69 29 85
37 85 38 332 127 415 149 8 2 40 11 70 20 65 18 348 81 405 90 22 4 49 8 60
10 11 2 45 6 75 10 30 3 66 8 80 10 14 3 63 7 110 11 47 3 87 8 90 11 2 2
-104 3 -237 2 -134 -1 -244 -3 -245 -5z"/>
<path d="M4195 7930 c-2 -4 1 -7 8 -7 10 0 76 -6 197 -19 14 -1 25 -3 25 -4 0
-1 20 -3 44 -6 25 -2 56 -7 70 -10 14 -3 37 -7 51 -9 30 -5 65 -13 65 -15 0
-1 11 -3 25 -4 36 -4 195 -43 265 -64 33 -10 63 -20 67 -21 9 -2 13 -3 103
-32 81 -25 212 -75 237 -89 10 -6 22 -10 27 -10 17 0 255 -115 363 -176 133
-74 239 -141 363 -230 l100 -71 225 2 c124 1 227 2 229 3 8 4 -244 179 -344
237 -105 62 -135 78 -290 154 -142 69 -220 104 -235 106 -3 1 -22 9 -43 18
-119 52 -481 158 -622 182 -16 3 -55 10 -85 16 -30 6 -71 12 -90 15 -73 10
-107 14 -155 19 -27 3 -72 8 -100 11 -76 9 -495 12 -500 4z"/>
<path d="M8225 6905 c-64 -31 -84 -34 -235 -43 -129 -7 -2815 -8 -4575 -1
-550 2 -1036 0 -1080 -4 -44 -4 -99 -9 -122 -11 -22 -2 -65 -9 -95 -15 -29 -6
-64 -12 -78 -15 -14 -2 -45 -9 -70 -16 -25 -7 -53 -14 -62 -15 -10 -2 -23 -7
-28 -10 -5 -3 -19 -8 -30 -10 -11 -2 -63 -23 -115 -45 -294 -130 -505 -326
-625 -583 -34 -73 -77 -187 -85 -227 -2 -8 -4 -17 -5 -20 -1 -3 -2 -8 -2 -11
1 -4 -3 -22 -9 -40 -37 -126 -45 -446 -13 -602 2 -12 7 -35 10 -52 48 -269
201 -558 406 -768 149 -152 286 -251 468 -340 132 -64 353 -137 460 -152 8 -1
29 -4 45 -8 159 -33 498 -41 558 -12 30 14 35 21 33 46 -2 31 -18 47 -46 50
-61 6 -110 9 -215 13 -160 6 -403 59 -452 99 -7 5 -13 6 -13 3 0 -8 -159 76
-205 108 -57 39 -150 119 -198 170 -124 133 -250 374 -273 526 -1 8 -7 39 -13
69 -17 82 -24 166 -24 286 0 190 10 281 48 439 10 43 38 122 46 131 5 5 9 14
9 21 0 21 91 177 145 250 165 221 422 389 656 428 19 3 45 8 59 10 14 3 48 8
75 12 70 11 3346 12 3368 2 9 -5 17 -5 17 0 0 8 79 6 88 -3 3 -2 12 -1 21 4 9
5 25 5 36 1 11 -4 32 -4 46 0 15 4 32 4 39 0 7 -5 24 -4 37 1 12 5 23 5 23 1
0 -4 286 -8 635 -8 724 -2 797 -5 901 -40 213 -70 302 -182 329 -414 14 -119
30 -152 68 -137 38 15 52 70 62 252 10 170 31 404 42 450 2 11 6 31 9 45 2 14
10 53 17 87 11 51 11 68 1 93 -16 36 -24 36 -89 5z"/>
<path d="M3303 6301 c-4 -3 -8 -829 -8 -1836 -1 -1644 -5 -2185 -20 -2340 -2
-27 -7 -79 -10 -115 -9 -109 -24 -210 -33 -225 -4 -5 -8 -18 -9 -28 -5 -31
-45 -101 -74 -129 -63 -60 -120 -78 -309 -93 -25 -2 -45 -4 -45 -5 0 0 -31 -3
-69 -5 -87 -5 -126 -14 -127 -28 -3 -27 4 -43 24 -60 20 -16 46 -17 362 -11
187 4 462 6 610 5 265 -1 826 -1 1380 1 154 0 428 -3 610 -6 381 -8 408 -3
384 61 -10 28 -37 34 -219 48 -197 15 -257 31 -313 88 -75 75 -116 197 -132
391 -2 28 -7 83 -10 121 -3 39 -8 171 -10 295 -3 124 -5 225 -6 225 0 0 -1
269 -1 597 0 487 2 601 13 614 12 15 61 16 524 11 593 -7 620 -9 726 -46 82
-28 113 -46 161 -94 73 -71 109 -168 124 -325 9 -93 26 -132 59 -132 41 0 48
32 60 285 9 197 16 278 31 410 10 89 16 131 19 145 2 8 7 35 10 60 4 25 10 65
15 89 9 51 -4 91 -31 91 -9 0 -32 -17 -51 -37 -156 -174 -132 -170 -1059 -178
-502 -4 -578 -3 -589 10 -10 12 -12 250 -12 1083 l0 1069 -307 0 -306 1 0
-1922 c0 -1056 -4 -2004 -9 -2106 -9 -203 -14 -285 -16 -285 -1 0 -3 -25 -5
-55 -7 -116 -35 -225 -72 -284 -32 -49 -45 -61 -101 -87 -47 -22 -65 -27 -130
-34 -23 -2 -48 -7 -54 -11 -6 -4 -9 -3 -6 2 4 5 -13 9 -35 9 -52 -1 -128 18
-167 42 -82 48 -131 193 -155 453 -16 183 -20 613 -20 2311 l0 1966 -292 0
c-160 0 -295 -2 -300 -6z"/>
<path d="M7067 6248 c-8 -5 -6 -12 5 -25 29 -34 140 -226 203 -352 76 -152 92
-187 143 -316 21 -55 43 -109 47 -120 4 -11 9 -25 10 -30 2 -6 16 -53 33 -106
29 -89 80 -280 87 -324 2 -11 13 -69 24 -130 40 -223 54 -356 55 -547 1 -71 5
-128 9 -128 5 0 5 -4 2 -10 -3 -5 -8 -72 -10 -149 -2 -76 -6 -156 -9 -177 -3
-22 -8 -64 -11 -94 -4 -30 -8 -66 -10 -80 -2 -14 -7 -45 -11 -70 -9 -69 -22
-138 -39 -207 -3 -13 -7 -33 -10 -45 -7 -32 -15 -70 -20 -93 -5 -25 -53 -191
-64 -225 -5 -14 -12 -34 -17 -45 -4 -11 -8 -24 -10 -30 -5 -23 -65 -176 -98
-255 -46 -106 -138 -288 -212 -416 -49 -87 -217 -340 -233 -354 -3 -3 -19 -23
-36 -45 -16 -22 -31 -42 -34 -45 -4 -3 -26 -30 -51 -60 -66 -82 -102 -121
-240 -259 -218 -219 -436 -390 -710 -558 -98 -60 -460 -243 -481 -243 -8 0
-23 -6 -34 -13 -32 -22 -310 -119 -373 -132 -11 -2 -30 -9 -41 -15 -12 -6 -21
-9 -21 -6 0 3 -15 0 -32 -5 -18 -6 -41 -12 -51 -14 -10 -2 -26 -6 -35 -9 -9
-3 -32 -8 -51 -11 -19 -3 -37 -8 -40 -10 -4 -2 -25 -6 -47 -9 -22 -4 -51 -9
-64 -12 -14 -3 -45 -7 -70 -10 -25 -3 -52 -7 -59 -10 -8 -3 -43 -7 -77 -10
-35 -3 -71 -7 -81 -9 -10 -2 -35 -4 -55 -4 -21 -1 -38 -5 -38 -10 0 -9 437 -8
485 2 17 3 62 9 100 12 39 4 102 11 140 17 39 5 77 11 85 12 59 9 109 19 135
26 17 4 62 15 101 24 39 9 79 18 90 21 54 13 201 56 214 64 9 5 31 12 50 16
19 4 40 11 45 14 6 4 39 18 75 30 36 13 93 36 128 52 34 16 65 29 68 29 7 0
245 119 297 149 88 50 105 60 157 92 30 19 57 36 60 39 3 4 22 17 43 29 191
116 564 445 743 656 32 38 64 75 69 81 30 35 56 68 122 159 40 55 76 105 81
110 11 14 135 212 162 260 41 72 148 288 185 375 82 190 181 493 211 645 2 11
6 31 9 45 26 116 60 339 73 480 14 159 6 630 -13 750 -2 14 -7 45 -10 70 -32
235 -112 576 -169 720 -8 19 -24 62 -36 95 -12 33 -26 69 -30 80 -5 11 -19 45
-31 75 -34 83 -181 375 -190 378 -5 2 -9 8 -9 13 0 5 -27 54 -61 108 l-61 97
-47 2 c-167 6 -405 6 -414 0z"/>
<path d="M2580 3719 c-111 -22 -168 -42 -265 -92 -170 -88 -306 -213 -498
-457 -7 -8 -37 -47 -67 -85 -30 -38 -62 -79 -72 -90 -9 -11 -74 -92 -144 -180
-70 -88 -130 -162 -133 -165 -3 -3 -33 -39 -66 -80 -53 -66 -87 -107 -120
-144 -6 -6 -48 -56 -95 -111 -148 -173 -307 -340 -400 -420 -50 -43 -169 -135
-174 -135 -3 0 -31 -17 -63 -38 -77 -50 -168 -93 -278 -131 -78 -26 -109 -34
-185 -46 -11 -1 -16 -18 -18 -65 l-3 -62 343 5 c189 3 354 7 368 10 14 3 48 8
75 12 64 9 196 44 213 57 6 6 12 8 12 4 0 -14 220 110 273 154 134 112 221
201 361 370 43 52 86 104 95 115 9 11 45 58 81 105 35 47 66 87 69 90 4 3 60
77 126 165 66 88 122 162 125 165 8 8 240 322 380 515 192 265 343 469 357
483 7 7 13 17 13 22 0 4 14 13 30 20 17 7 30 16 30 20 0 15 -284 7 -370 -11z"/>
<path d="M1358 1332 c-29 -19 -95 -55 -147 -79 l-93 -45 43 -40 c62 -56 256
-218 304 -253 22 -17 42 -32 45 -35 3 -3 19 -14 35 -26 17 -11 54 -38 84 -58
79 -56 259 -166 271 -166 5 0 10 -3 10 -7 0 -5 10 -13 23 -19 12 -6 90 -45
172 -87 168 -85 364 -166 535 -223 63 -21 120 -39 125 -40 6 -2 53 -15 105
-29 52 -15 104 -28 115 -31 11 -2 45 -9 75 -15 30 -7 64 -13 75 -15 11 -2 43
-8 70 -14 28 -6 66 -13 85 -15 19 -2 46 -6 60 -9 14 -2 52 -8 85 -11 33 -4 71
-8 85 -10 14 -2 50 -5 80 -6 30 -1 67 -6 83 -10 16 -5 27 -4 27 2 0 6 5 7 11
3 14 -8 389 -12 394 -4 2 4 -17 8 -43 9 -94 5 -201 18 -347 41 -156 26 -227
40 -355 74 -8 3 -36 9 -62 15 -69 16 -313 97 -423 141 -93 37 -329 143 -355
160 -8 5 -37 20 -65 34 -27 13 -99 54 -159 90 -60 36 -111 66 -113 66 -2 0
-34 22 -73 50 -39 27 -74 50 -79 50 -5 0 -11 3 -13 8 -1 4 -39 34 -83 66 -160
119 -266 210 -427 366 l-108 106 -52 -34z"/>
</g>
</svg>
