<?xml version="1.0" standalone="no"?>
<!DOCTYPE svg PUBLIC "-//W3C//DTD SVG 20010904//EN"
 "http://www.w3.org/TR/2001/REC-SVG-20010904/DTD/svg10.dtd">
<svg version="1.0" xmlns="http://www.w3.org/2000/svg"
 width="176.000000pt" height="176.000000pt" viewBox="0 0 176.000000 176.000000"
 preserveAspectRatio="xMidYMid meet">
<metadata>
Created by potrace 1.14, written by Peter Selinger 2001-2017
</metadata>
<g transform="translate(0.000000,176.000000) scale(0.100000,-0.100000)"
fill="#000000" stroke="none">
<path d="M895 1602 c-2 -2 -21 -6 -42 -9 -21 -3 -46 -9 -56 -15 -9 -5 -22 -6
-27 -3 -6 3 -10 1 -10 -4 0 -6 -9 -11 -19 -11 -18 0 -59 -20 -121 -59 -14 -8
-27 -16 -30 -16 -23 -2 -166 -150 -203 -210 -33 -55 -87 -169 -87 -186 0 -8
-3 -19 -8 -23 -4 -4 -7 -15 -8 -24 0 -9 -4 -34 -8 -54 -11 -53 -14 -198 -3
-198 4 0 5 -4 2 -10 -3 -5 -1 -29 6 -52 6 -24 12 -47 14 -53 2 -9 6 -22 23
-65 3 -8 6 -17 7 -20 4 -16 52 -101 78 -140 40 -57 118 -136 182 -182 61 -44
150 -89 159 -81 3 4 6 2 6 -4 0 -9 16 -15 79 -29 8 -1 26 -6 40 -10 30 -8 214
-8 251 0 14 3 36 7 50 10 34 8 128 46 165 67 17 10 48 27 70 39 22 11 53 31
69 44 l29 24 -1 288 c0 159 -1 294 -1 301 -1 16 -530 19 -532 3 -1 -5 -2 -22
-3 -37 l-1 -28 231 -3 232 -2 0 -241 1 -240 -56 -36 c-68 -43 -171 -92 -210
-99 -115 -22 -194 -25 -285 -10 -70 11 -226 76 -236 99 -2 4 -9 7 -15 7 -18 0
-129 110 -164 161 -29 42 -85 152 -84 163 0 3 -7 25 -15 48 -20 54 -25 224 -9
292 44 182 120 301 262 409 33 25 71 49 86 52 15 4 27 11 27 16 0 5 9 9 19 9
11 0 23 5 26 10 4 6 11 8 16 4 5 -3 15 -1 22 4 39 32 338 33 372 1 5 -5 18 -9
28 -9 31 0 148 -66 204 -115 l52 -45 27 25 28 26 -37 35 c-20 20 -37 34 -37
31 0 -3 -11 5 -25 17 -14 13 -51 37 -83 52 -31 16 -60 33 -63 37 -3 5 -9 8
-13 7 -3 -1 -32 6 -64 16 -31 9 -73 18 -92 21 -46 6 -210 10 -215 5z"/>
<path d="M937 1464 c-1 -1 -22 -5 -47 -9 -24 -4 -53 -12 -65 -17 -11 -6 -22
-11 -25 -10 -8 3 -44 -10 -50 -17 -3 -3 -27 -17 -54 -31 -58 -29 -151 -117
-192 -181 -16 -24 -29 -46 -30 -49 0 -3 -9 -23 -19 -45 -9 -22 -19 -47 -20
-55 -2 -8 -4 -17 -6 -20 -1 -3 -3 -9 -4 -15 -1 -5 -5 -26 -9 -47 -10 -47 -11
-142 -2 -193 14 -76 61 -194 96 -239 32 -42 134 -146 142 -146 5 0 25 -12 44
-26 19 -15 34 -23 34 -20 0 4 10 0 23 -8 31 -21 103 -46 152 -53 34 -4 190 -7
190 -3 0 2 36 11 57 14 9 1 23 8 32 15 9 8 16 10 16 6 0 -9 127 62 149 84 15
15 16 25 11 166 -1 6 1 44 3 85 1 41 -1 81 -6 88 -6 8 -5 12 2 12 8 0 9 5 2
18 -9 15 -29 17 -200 18 -105 0 -191 -2 -192 -5 -1 -3 -2 -52 -3 -109 l-1
-102 25 -1 c14 0 52 -1 85 -2 72 -2 81 -22 20 -44 -35 -12 -68 -15 -160 -12
-47 1 -136 50 -188 102 -47 48 -102 139 -90 151 4 3 2 6 -3 6 -10 0 -13 16
-15 90 -2 110 27 187 98 257 66 65 90 83 112 83 11 0 21 4 23 9 5 16 120 29
181 21 61 -9 130 -38 163 -69 52 -48 56 -47 138 41 86 91 86 87 2 142 -98 63
-181 98 -266 112 -44 7 -148 12 -153 8z m158 -87 c35 -6 67 -18 139 -52 72
-34 81 -46 55 -73 -21 -23 -49 -29 -49 -11 0 5 -4 7 -10 4 -5 -3 -10 -1 -10 4
0 6 -7 11 -15 11 -8 0 -15 5 -15 12 0 6 -3 9 -6 6 -3 -4 -21 0 -40 8 -19 8
-34 11 -34 8 0 -4 -6 -1 -14 5 -18 15 -189 16 -194 1 -2 -5 -8 -7 -13 -4 -18
11 -138 -54 -190 -103 -41 -38 -101 -120 -105 -143 0 -3 -6 -18 -13 -35 -7
-16 -14 -49 -15 -72 0 -24 -4 -43 -7 -43 -8 0 2 -96 15 -155 12 -54 54 -123
107 -178 32 -34 59 -58 59 -54 0 4 10 -2 22 -13 13 -11 33 -23 45 -26 13 -4
23 -10 23 -14 0 -4 12 -10 28 -13 15 -3 38 -8 52 -11 68 -17 180 -5 253 28
l58 26 -4 40 c-2 22 0 40 4 40 5 0 4 11 -1 25 -6 15 -6 26 1 30 17 11 -2 26
-29 25 -15 -1 -54 -2 -88 -1 -60 1 -61 1 -59 29 l1 27 105 1 c57 1 111 0 119
-2 12 -3 16 -20 16 -76 -1 -40 -5 -76 -11 -80 -6 -5 -6 -8 1 -8 11 0 11 -67
-1 -97 -11 -31 -169 -84 -250 -86 -48 0 -138 9 -165 18 -289 93 -440 375 -351
653 13 39 28 72 34 72 6 0 7 3 4 6 -4 4 3 20 14 35 11 16 18 29 15 29 -6 0 76
82 113 112 18 16 137 79 143 77 2 0 10 2 18 5 67 21 159 26 245 13z"/>
</g>
</svg>
